<?xml version="1.0" encoding="UTF-8"?>
<!DOCTYPE svg PUBLIC "-//W3C//DTD SVG 1.1//EN" "http://www.w3.org/Graphics/SVG/1.1/DTD/svg11.dtd">
<!-- Creator: CorelDRAW 2020 (64-Bit) -->
<svg xmlns="http://www.w3.org/2000/svg" xml:space="preserve" width="5.7029mm" height="5.6926mm" version="1.1" shape-rendering="geometricPrecision" text-rendering="geometricPrecision" image-rendering="optimizeQuality" fill-rule="evenodd" clip-rule="evenodd"
viewBox="0 0 13.03 13.01"
 xmlns:xlink="http://www.w3.org/1999/xlink"
 xmlns:xodm="http://www.corel.com/coreldraw/odm/2003">
 <g id="Layer_x0020_1">
  <metadata id="CorelCorpID_0Corel-Layer"/>
  <g id="_2413810857792">
   <path fill="none" stroke="#FEFEFE" stroke-width="0.57" stroke-miterlimit="22.9256" d="M6.11 2.37l5.57 0c0.59,0 1.07,0.48 1.07,1.07l0 8.2c0,0.59 -0.48,1.07 -1.07,1.07l-6.11 0c-0.59,0 -0.94,-0.51 -1.07,-1.07l-0.3 -1.31c1.76,0 2.25,0 2.45,0 0.17,-0 -0.48,-7.23 -0.53,-7.97z"/>
   <path fill="none" stroke="#FEFEFE" stroke-width="0.57" stroke-miterlimit="22.9256" d="M1.3 0.29l3.6 0c0.76,0 1.02,0.5 1.1,1.16 0.36,2.93 0.5,5.96 0.72,8.9l-5.39 0c-0.69,0 -1.04,-0.45 -1.04,-1.12l-0 -7.76c0,-0.45 0.05,-1.17 1.02,-1.17z"/>
   <path fill="#FEFEFE" d="M8.6 6.43l1.19 0c-0.06,0.25 -0.33,0.71 -0.49,0.93 -0.05,0.07 -0.06,0.06 -0.08,0.14l-0.05 0c-0.02,-0.08 -0.03,-0.06 -0.07,-0.12 -0.03,-0.04 -0.05,-0.07 -0.08,-0.12 -0.15,-0.22 -0.25,-0.41 -0.36,-0.66 -0.02,-0.06 -0.04,-0.11 -0.06,-0.16zm0.22 -1.17l0 0.42 -1.17 0c-0.36,0 -0.55,0.74 0.12,0.74 0.09,0.17 0.15,0.45 0.38,0.88 0.04,0.07 0.07,0.12 0.11,0.19 0.04,0.07 0.08,0.14 0.12,0.2 0.09,0.13 0.19,0.24 0.28,0.37l-0.78 0.63c-0.31,0.24 -0.24,0.71 0.24,0.71 0.14,0 0.4,-0.25 0.55,-0.36 0.05,-0.04 0.08,-0.06 0.12,-0.1l0.39 -0.33 0.5 0.42c0.32,0.24 0.37,0.38 0.67,0.38 0.26,0 0.51,-0.42 0.14,-0.71l-0.78 -0.63c0.19,-0.28 0.32,-0.39 0.51,-0.75 0.07,-0.13 0.15,-0.29 0.2,-0.42l0.18 -0.47c0.15,0 0.21,0 0.3,-0.07 0.28,-0.21 0.12,-0.67 -0.18,-0.67l-1.17 0 0 -0.42c0,-0.43 -0.74,-0.43 -0.74,0z"/>
   <path fill="#FEFEFE" d="M3.25 3.46c0.1,0 0.08,0.13 0.12,0.32l0.23 1.16 -0.69 0 0.22 -1.14c0.04,-0.21 0.03,-0.35 0.13,-0.35zm-1.49 3.35c0,0.43 0.57,0.5 0.72,0.15l0.23 -1.09c0.04,-0.25 -0.05,-0.18 0.99,-0.18 0.09,0 0.07,0.07 0.09,0.16l0.22 1.09c0.14,0.37 0.73,0.31 0.73,-0.13 0,-0.19 -0.37,-1.94 -0.42,-2.16 -0.07,-0.37 -0.14,-0.7 -0.22,-1.07 -0.2,-0.99 -0.1,-0.85 -1.28,-0.85 -0.36,0 -0.39,0.61 -0.44,0.85l-0.43 2.15c-0.04,0.21 -0.2,0.92 -0.2,1.09z"/>
   <line fill="none" stroke="#FEFEFE" stroke-width="0.57" stroke-miterlimit="22.9256" x1="6.78" y1="10.37" x2="4.91" y2= "12.47" />
  </g>
 </g>
</svg>
